<svg width="119" height="56" viewBox="0 0 119 56" fill="none" xmlns="http://www.w3.org/2000/svg">
<path d="M24.7159 54.2394C24.7159 55.2551 23.9033 56 22.9553 56C21.9396 56 21.1947 55.1874 21.1947 54.2394C21.1947 53.2914 22.0073 52.4788 22.9553 52.4788C23.9033 52.4111 24.7159 53.2237 24.7159 54.2394Z" fill="#F9A51A"/>
<path d="M7.44857 56C8.42091 56 9.20915 55.2118 9.20915 54.2395C9.20915 53.2671 8.42091 52.4789 7.44857 52.4789C6.47623 52.4789 5.68799 53.2671 5.68799 54.2395C5.68799 55.2118 6.47623 56 7.44857 56Z" fill="#F9A51A"/>
<path d="M21.3978 1.69287H9.07373V13.5429H21.3978V1.69287Z" stroke="#F9A51A" stroke-width="3.3659" stroke-miterlimit="10"/>
<path d="M19.3664 3.04716H10.9697C10.6312 3.04716 10.2926 2.7763 10.2926 2.37001V0.677146C10.2926 0.338573 10.5635 0 10.9697 0H19.3664C19.7049 0 20.0435 0.270859 20.0435 0.677146V2.37001C20.0435 2.7763 19.7727 3.04716 19.3664 3.04716Z" fill="#F9A51A"/>
<path d="M9.88635 52.4789H5.07861V54.104H9.88635V52.4789Z" fill="#F9A51A"/>
<path d="M25.3253 52.4789H20.5176V54.104H25.3253V52.4789Z" fill="#F9A51A"/>
<path d="M27.0859 12.4595H3.31802C1.48972 12.4595 0 13.9492 0 15.7775V49.1608C0 50.9891 1.48972 52.4788 3.31802 52.4788H27.0859C28.9141 52.4788 30.4039 50.9891 30.4039 49.1608V15.7775C30.4039 13.9492 28.9141 12.4595 27.0859 12.4595ZM9.2769 43.1342C9.2769 43.8791 8.66747 44.4208 7.99033 44.4208C7.24547 44.4208 6.70375 43.8114 6.70375 43.1342V23.023C6.70375 22.2781 7.31318 21.7364 7.99033 21.7364C8.73519 21.7364 9.2769 22.3458 9.2769 23.023V43.1342ZM16.5224 43.1342C16.5224 43.8791 15.9129 44.4208 15.2358 44.4208C14.4909 44.4208 13.9492 43.8114 13.9492 43.1342V23.023C13.9492 22.2781 14.5586 21.7364 15.2358 21.7364C15.9807 21.7364 16.5224 22.3458 16.5224 23.023V43.1342ZM23.7001 43.1342C23.7001 43.8791 23.0907 44.4208 22.4135 44.4208C21.7364 44.4208 21.127 43.8114 21.127 43.1342V23.023C21.127 22.2781 21.7364 21.7364 22.4135 21.7364C23.0907 21.7364 23.7001 22.3458 23.7001 23.023V43.1342Z" fill="#F9A51A"/>
<path d="M48.2137 10.4132C42.66 10.6446 39.6517 10.876 38.9575 10.876C37.8005 10.876 36.4121 10.1818 35.255 8.56199C34.098 6.94216 33.4038 5.32232 33.4038 3.70248C33.4038 1.15702 40.8088 0 55.6187 0C63.2551 0 68.8088 0.694216 72.2799 2.31405C75.751 3.93389 77.6022 5.78513 77.6022 8.09919C77.6022 8.7934 77.1394 9.48762 76.4452 9.95043C75.751 10.6446 74.594 10.876 73.4369 10.876C72.2799 10.876 69.9659 10.876 66.9576 10.6446C63.7179 10.4132 60.941 10.4132 58.3956 10.4132C58.627 11.1075 58.627 11.8017 58.627 12.4959C58.627 13.4215 58.3956 15.0413 57.7014 17.3554C57.0072 19.6695 56.3129 23.1405 55.1559 27.5372C53.9989 31.9339 52.8419 37.0249 51.6848 43.2728C50.2964 49.5207 49.6022 52.9918 48.908 54.1488C48.2137 55.3059 47.9823 56.0001 47.5195 56.0001C46.3625 56.0001 44.9741 55.0745 43.3542 52.9918C41.7344 50.9092 40.8088 49.2893 40.8088 48.1323C40.8088 46.9753 41.9658 41.653 44.0485 32.6281C46.3625 23.6033 47.7509 16.1984 48.2137 10.4132Z" fill="black"/>
<path d="M118.939 14.4691L102.371 52.7435H93.6229L77.1102 14.4691H86.6788L98.3252 41.808L110.136 14.4691H118.939Z" fill="black"/>
</svg>
